<svg xmlns="http://www.w3.org/2000/svg" width="42" height="42" viewBox="0 0 42 42" fill="none">
    <path d="M32.025 9.99224C31.6981 9.66455 31.2542 9.48039 30.7913 9.48039C30.3284 9.48039 29.8845 9.66455 29.5575 9.99224L21 18.5322L12.4425 9.97474C12.1156 9.64705 11.6717 9.46289 11.2088 9.46289C10.7459 9.46289 10.302 9.64705 9.97501 9.97474C9.29251 10.6572 9.29251 11.7597 9.97501 12.4422L18.5325 20.9997L9.97501 29.5572C9.29251 30.2397 9.29251 31.3422 9.97501 32.0247C10.6575 32.7072 11.76 32.7072 12.4425 32.0247L21 23.4672L29.5575 32.0247C30.24 32.7072 31.3425 32.7072 32.025 32.0247C32.7075 31.3422 32.7075 30.2397 32.025 29.5572L23.4675 20.9997L32.025 12.4422C32.69 11.7772 32.69 10.6572 32.025 9.99224Z" fill="#0F172A"/>
</svg>