<svg xmlns="http://www.w3.org/2000/svg" width="30" height="30" viewBox="0 0 30 30" fill="none">
<path d="M22.8749 7.13787C22.6414 6.90381 22.3243 6.77227 21.9937 6.77227C21.663 6.77227 21.3459 6.90381 21.1124 7.13787L14.9999 13.2379L8.8874 7.12537C8.65386 6.89131 8.3368 6.75977 8.00615 6.75977C7.67551 6.75977 7.35844 6.89131 7.1249 7.12537C6.6374 7.61287 6.6374 8.40037 7.1249 8.88787L13.2374 15.0004L7.1249 21.1129C6.6374 21.6004 6.6374 22.3879 7.1249 22.8754C7.6124 23.3629 8.3999 23.3629 8.8874 22.8754L14.9999 16.7629L21.1124 22.8754C21.5999 23.3629 22.3874 23.3629 22.8749 22.8754C23.3624 22.3879 23.3624 21.6004 22.8749 21.1129L16.7624 15.0004L22.8749 8.88787C23.3499 8.41287 23.3499 7.61287 22.8749 7.13787Z" fill="#0F172A"/>
</svg>