<svg xmlns="http://www.w3.org/2000/svg" width="18" height="22" viewBox="0 0 18 22" fill="none">
    <path fill-rule="evenodd" clip-rule="evenodd" d="M9 20.9988L9.84133 20.1123C10.796 19.0899 11.6547 18.1199 12.4187 17.1972L13.0493 16.4192C15.6827 13.1015 17 10.4682 17 8.52197C17 4.36762 13.4187 1 9 1C4.58133 1 1 4.36762 1 8.52197C1 10.4682 2.31733 13.1015 4.95067 16.4192L5.58133 17.1972C6.67125 18.5031 7.81156 19.7703 9 20.9988Z" stroke="#848FAC" stroke-width="2" stroke-linecap="round" stroke-linejoin="round"/>
    <path d="M8.9974 11.5973C10.8383 11.5973 12.3307 10.2018 12.3307 8.48029C12.3307 6.75882 10.8383 5.36328 8.9974 5.36328C7.15645 5.36328 5.66406 6.75882 5.66406 8.48029C5.66406 10.2018 7.15645 11.5973 8.9974 11.5973Z" stroke="#848FAC" stroke-width="2" stroke-linecap="round" stroke-linejoin="round"/>
</svg>