<svg width="24" height="24" viewBox="0 0 24 24" fill="none" xmlns="http://www.w3.org/2000/svg">
<g id="image_icon">
<path id="image_" d="M4.20852 13.0054L17.3785 13.0054L14.4985 15.8854C14.1085 16.2754 14.1085 16.9054 14.4985 17.2954C14.6853 17.4827 14.939 17.5879 15.2035 17.5879C15.468 17.5879 15.7217 17.4827 15.9085 17.2954L20.4985 12.7054C20.8885 12.3154 20.8885 11.6854 20.4985 11.2954L15.9085 6.70541C15.5185 6.3154 14.8885 6.3154 14.4985 6.70541C14.1085 7.09541 14.1085 7.7254 14.4985 8.11541L17.3785 11.0054L4.20852 11.0054C3.65852 11.0054 3.20852 11.4554 3.20852 12.0054C3.20852 12.5554 3.65852 13.0054 4.20852 13.0054Z" fill="white"/>
</g>
</svg>
