<svg width="26" height="26" viewBox="0 0 26 26" fill="none" xmlns="http://www.w3.org/2000/svg">
<g id="image_">
<path id="Icon_" fill-rule="evenodd" clip-rule="evenodd" d="M13.0001 23.3996C18.7439 23.3996 23.4001 18.7434 23.4001 12.9996C23.4001 7.25585 18.7439 2.59961 13.0001 2.59961C7.25634 2.59961 2.6001 7.25585 2.6001 12.9996C2.6001 18.7434 7.25634 23.3996 13.0001 23.3996ZM17.8193 11.3188C18.327 10.8112 18.327 9.98805 17.8193 9.48037C17.3117 8.97269 16.4885 8.97269 15.9809 9.48037L11.7001 13.7611L10.0193 12.0804C9.51165 11.5727 8.68854 11.5727 8.18086 12.0804C7.67318 12.5881 7.67318 13.4112 8.18086 13.9188L10.7809 16.5188C11.2885 17.0265 12.1117 17.0265 12.6193 16.5188L17.8193 11.3188Z" fill="#34D399"/>
</g>
</svg>
