<svg width="17" height="20" viewBox="0 0 17 20" fill="none" xmlns="http://www.w3.org/2000/svg">
<g id="Group_icon">
<path id="image_Vector" fill-rule="evenodd" clip-rule="evenodd" d="M8.5 19.4988L9.28875 18.6567C10.1838 17.6854 10.9888 16.7639 11.705 15.8874L12.2962 15.1483C14.765 11.9964 16 9.49483 16 7.64588C16 3.69924 12.6425 0.5 8.5 0.5C4.3575 0.5 1 3.69924 1 7.64588C1 9.49483 2.235 11.9964 4.70375 15.1483L5.295 15.8874C6.3168 17.128 7.38584 18.3318 8.5 19.4988Z" stroke="#0097CB" stroke-linecap="round" stroke-linejoin="round"/>
<path id="image_Vector_2" d="M8.5 10.5669C10.2259 10.5669 11.625 9.2411 11.625 7.60569C11.625 5.97029 10.2259 4.64453 8.5 4.64453C6.77411 4.64453 5.375 5.97029 5.375 7.60569C5.375 9.2411 6.77411 10.5669 8.5 10.5669Z" stroke="#0097CB" stroke-linecap="round" stroke-linejoin="round"/>
</g>
</svg>
