<svg width="26" height="27" viewBox="0 0 26 27" fill="none" xmlns="http://www.w3.org/2000/svg">
<g id="image_">
<path id="image_icon" fill-rule="evenodd" clip-rule="evenodd" d="M12.9996 23.5051C18.7434 23.5051 23.3996 18.8488 23.3996 13.1051C23.3996 7.36132 18.7434 2.70508 12.9996 2.70508C7.25585 2.70508 2.59961 7.36132 2.59961 13.1051C2.59961 18.8488 7.25585 23.5051 12.9996 23.5051ZM11.3188 9.58584C10.8112 9.07816 9.98805 9.07816 9.48037 9.58584C8.97269 10.0935 8.97269 10.9166 9.48037 11.4243L11.1611 13.1051L9.48037 14.7858C8.97269 15.2935 8.97269 16.1166 9.48037 16.6243C9.98805 17.132 10.8112 17.132 11.3188 16.6243L12.9996 14.9436L14.6804 16.6243C15.1881 17.132 16.0112 17.132 16.5188 16.6243C17.0265 16.1166 17.0265 15.2935 16.5188 14.7858L14.8381 13.1051L16.5188 11.4243C17.0265 10.9166 17.0265 10.0935 16.5188 9.58584C16.0112 9.07816 15.1881 9.07816 14.6804 9.58584L12.9996 11.2666L11.3188 9.58584Z" fill="#F87171"/>
</g>
</svg>
