<svg xmlns="http://www.w3.org/2000/svg" width="31" height="30" viewBox="0 0 31 30" fill="none">
<path d="M23.3749 7.13592C23.1414 6.90185 22.8243 6.77031 22.4937 6.77031C22.163 6.77031 21.8459 6.90185 21.6124 7.13592L15.4999 13.2359L9.3874 7.12342C9.15386 6.88935 8.8368 6.75781 8.50615 6.75781C8.17551 6.75781 7.85844 6.88935 7.6249 7.12342C7.1374 7.61092 7.1374 8.39842 7.6249 8.88592L13.7374 14.9984L7.6249 21.1109C7.1374 21.5984 7.1374 22.3859 7.6249 22.8734C8.1124 23.3609 8.8999 23.3609 9.3874 22.8734L15.4999 16.7609L21.6124 22.8734C22.0999 23.3609 22.8874 23.3609 23.3749 22.8734C23.8624 22.3859 23.8624 21.5984 23.3749 21.1109L17.2624 14.9984L23.3749 8.88592C23.8499 8.41092 23.8499 7.61092 23.3749 7.13592Z" fill="#0F172A"/>
</svg>