<svg xmlns="http://www.w3.org/2000/svg" width="40" height="40" viewBox="0 0 40 40" fill="none">
    <path d="M12 8C12 6.93913 12.4214 5.92172 13.1716 5.17157C13.9217 4.42143 14.9391 4 16 4H28C29.0609 4 30.0783 4.42143 30.8284 5.17157C31.5786 5.92172 32 6.93913 32 8V28C32 29.0609 31.5786 30.0783 30.8284 30.8284C30.0783 31.5786 29.0609 32 28 32H16C14.9391 32 13.9217 31.5786 13.1716 30.8284C12.4214 30.0783 12 29.0609 12 28V8ZM8 12C8.00002 11.2979 8.18485 10.6081 8.53592 10.0001C8.887 9.392 9.39194 8.88706 10 8.536V29C10 30.3261 10.5268 31.5979 11.4645 32.5355C12.4021 33.4732 13.6739 34 15 34H27.464C27.1129 34.6081 26.608 35.113 25.9999 35.4641C25.3919 35.8151 24.7021 36 24 36H15C13.1435 36 11.363 35.2625 10.0503 33.9497C8.7375 32.637 8 30.8565 8 29V12Z" fill="#273567"/>
</svg>