<svg xmlns="http://www.w3.org/2000/svg" width="40" height="40" viewBox="0 0 40 40" fill="none">
<path d="M33.3334 6.66699H6.66671C4.83337 6.66699 3.35004 8.16699 3.35004 10.0003L3.33337 30.0003C3.33337 31.8337 4.83337 33.3337 6.66671 33.3337H33.3334C35.1667 33.3337 36.6667 31.8337 36.6667 30.0003V10.0003C36.6667 8.16699 35.1667 6.66699 33.3334 6.66699ZM32.6667 13.7503L20.8834 21.117C20.35 21.4503 19.65 21.4503 19.1167 21.117L7.33337 13.7503C7.16625 13.6565 7.01991 13.5298 6.90319 13.3777C6.78647 13.2257 6.70181 13.0516 6.65433 12.8659C6.60685 12.6803 6.59755 12.4869 6.62697 12.2975C6.65639 12.1081 6.72393 11.9267 6.82551 11.7642C6.92709 11.6016 7.06058 11.4614 7.21792 11.352C7.37525 11.2425 7.55316 11.1662 7.74087 11.1275C7.92857 11.0888 8.12218 11.0886 8.30997 11.1269C8.49775 11.1652 8.67581 11.2412 8.83337 11.3503L20 18.3337L31.1667 11.3503C31.3243 11.2412 31.5023 11.1652 31.6901 11.1269C31.8779 11.0886 32.0715 11.0888 32.2592 11.1275C32.4469 11.1662 32.6248 11.2425 32.7822 11.352C32.9395 11.4614 33.073 11.6016 33.1746 11.7642C33.2761 11.9267 33.3437 12.1081 33.3731 12.2975C33.4025 12.4869 33.3932 12.6803 33.3457 12.8659C33.2983 13.0516 33.2136 13.2257 33.0969 13.3777C32.9802 13.5298 32.8338 13.6565 32.6667 13.7503Z" fill="#273567"/>
</svg>